<svg xmlns="http://www.w3.org/2000/svg" viewBox="0 0 24 24" fill="#61cf5a">
  <path d="M12,2C6.48,2 2,4.02 2,6.5V17.5C2,19.98 6.48,22 12,22C17.52,22 22,19.98 22,17.5V6.5C22,4.02 17.52,2 12,2M12,4C16.54,4 20,5.12 20,6.5C20,7.88 16.54,9 12,9C7.46,9 4,7.88 4,6.5C4,5.12 7.46,4 12,4M12,11C7.46,11 4,9.88 4,8.5V12C4,13.38 7.46,14.5 12,14.5C16.54,14.5 20,13.38 20,12V8.5C20,9.88 16.54,11 12,11M12,16.5C7.46,16.5 4,15.38 4,14V17.5C4,18.88 7.46,20 12,20C16.54,20 20,18.88 20,17.5V14C20,15.38 16.54,16.5 12,16.5Z"/>
</svg>